<svg width="646" height="646" viewBox="0 0 646 646" fill="none" xmlns="http://www.w3.org/2000/svg">
<g clip-path="url(#clip0_12_3)">
<mask id="mask0_12_3" style="mask-type:luminance" maskUnits="userSpaceOnUse" x="0" y="0" width="646" height="646">
<path d="M646 323C646 144.612 501.388 0 323 0C144.612 0 0 144.612 0 323C0 501.388 144.612 646 323 646C501.388 646 646 501.388 646 323Z" fill="white"/>
</mask>
<g mask="url(#mask0_12_3)">
<path d="M646 0L0 0L0 646H646V0Z" fill="#A2E5D2"/>
<path d="M-64.7195 533.711C-27.6306 708.201 143.888 819.586 318.378 782.497C492.867 745.408 604.253 573.89 567.164 399.4C530.075 224.91 358.556 113.525 184.067 150.614C9.57691 187.703 -101.808 359.221 -64.7195 533.711Z" fill="#9DAB34"/>
<path d="M236.648 425.034C239.132 442.708 250.875 458.341 269.294 468.496C287.713 478.652 311.298 482.496 334.863 479.184C358.427 475.873 380.039 465.676 394.945 450.837C409.852 435.999 416.83 417.734 414.347 400.061" fill="black"/>
<path d="M217.774 355.204C216.395 345.39 209.31 338.273 201.949 339.307C194.589 340.342 189.74 349.136 191.119 358.95C192.498 368.764 199.583 375.881 206.944 374.847C214.304 373.812 219.153 365.018 217.774 355.204Z" fill="black"/>
<path d="M431.012 325.235C429.632 315.421 422.547 308.304 415.187 309.339C407.826 310.373 402.978 319.167 404.357 328.981C405.736 338.795 412.821 345.913 420.182 344.878C427.542 343.844 432.391 335.049 431.012 325.235Z" fill="black"/>
</g>
</g>
<defs>
<clipPath id="clip0_12_3">
<rect width="646" height="646" fill="white"/>
</clipPath>
</defs>
</svg>
